<svg width="141" height="53" viewBox="0 0 141 53" fill="none" xmlns="http://www.w3.org/2000/svg">
<g clip-path="url(#clip0_13829_448)">
<path d="M34.3461 0L17.4203 50.7883C12.4445 48.8963 8.1615 45.5361 5.13958 41.1536C2.11763 36.7711 0.499555 31.5734 0.5 26.25V0H34.3461Z" fill="#0086FF"/>
<path d="M52.9997 25.1562V0H36.6536L28.27 25.1562H52.9997Z" fill="#FCCF8F"/>
<path d="M19.4927 51.4773C21.8521 52.1554 24.2948 52.4996 26.7497 52.5C33.5262 52.5059 40.0424 49.8909 44.935 45.2022C49.8276 40.5135 52.7174 34.1144 52.9997 27.3438H27.5372L19.4927 51.4773Z" fill="#4F5159"/>
<path d="M70.6201 15.7334L72.9225 8.62402H74.4045L76.7123 15.7334H75.6186L73.4967 9.26387H73.7811L71.6865 15.7334H70.6201ZM71.8178 14.1311V13.1686H75.5201V14.1311H71.8178Z" fill="#4F5159"/>
<path d="M77.5493 15.7334V8.62402H78.5774V11.9053L81.5415 8.62402H82.8212L79.6876 12.0803L83.0782 15.7334H81.7548L78.5993 12.3428V15.7334H77.5493Z" fill="#4F5159"/>
<path d="M83.2041 15.7334L85.5064 8.62402H86.9885L89.2908 15.7334H88.1971L86.0752 9.26387H86.3596L84.265 15.7334H83.2041ZM84.3963 14.1311V13.1686H88.0986V14.1311H84.3963Z" fill="#4F5159"/>
<path d="M90.0947 16.9147V14.7655C90.3102 14.7752 90.5218 14.7116 90.6963 14.5851C90.8625 14.4495 90.9921 14.2747 91.0736 14.0765C91.1732 13.839 91.2464 13.5914 91.2924 13.3382C91.3432 13.0647 91.3815 12.7749 91.4072 12.4687C91.4471 12.053 91.48 11.6483 91.5057 11.2546C91.533 10.8608 91.5603 10.4507 91.5877 10.0296C91.615 9.6085 91.6369 9.14365 91.6697 8.646H96.2033V14.7655H96.7502V16.9202H95.7166V15.7335H91.1447V16.9147H90.0947ZM91.7846 14.7655H95.1752V9.61396H92.6158C92.6158 9.9749 92.5721 10.3194 92.5557 10.6421C92.5393 10.9647 92.5229 11.2929 92.4955 11.6265C92.4682 11.9601 92.4408 12.3101 92.408 12.6874C92.3752 13.0647 92.3314 13.3546 92.2932 13.6007C92.2614 13.8256 92.2024 14.0459 92.1182 14.2569C92.0378 14.4447 91.9246 14.6169 91.7846 14.7655Z" fill="#4F5159"/>
<path d="M97.7671 15.7334V8.62402H102.295V9.59199H98.7952V11.5771H101.705V12.5779H98.7952V14.7654H102.295V15.7389L97.7671 15.7334Z" fill="#4F5159"/>
<path d="M103.427 15.7334V8.62402H104.357L106.927 13.9506L109.481 8.62402H110.422V15.7279H109.443V10.8771L107.141 15.7334H106.67L104.406 10.8771V15.7334H103.427Z" fill="#4F5159"/>
<path d="M116.279 15.7334V10.4615L112.79 15.7334H111.751V8.62402H112.79V13.8904L116.279 8.62402H117.324V15.7334H116.279Z" fill="#4F5159"/>
<path d="M118.357 15.7339L119.894 12.5784L120.933 12.8409L119.533 15.7284L118.357 15.7339ZM122.65 15.7339V13.1854H120.643L120.222 13.1362C119.965 13.1034 119.718 13.0187 119.494 12.887C119.272 12.7553 119.078 12.5796 118.926 12.3706C118.629 11.9425 118.478 11.4308 118.494 10.9104C118.489 10.5544 118.556 10.2011 118.691 9.87139C118.814 9.56284 119.018 9.2929 119.281 9.08936C119.568 8.87039 119.907 8.73082 120.266 8.68467C120.363 8.66772 120.462 8.65678 120.561 8.65186H123.678V15.7612L122.65 15.7339ZM122.65 9.61435H120.856C120.781 9.60921 120.706 9.60921 120.632 9.61435C120.556 9.61862 120.48 9.63147 120.408 9.65264C120.215 9.69152 120.038 9.78668 119.899 9.92607C119.774 10.0546 119.681 10.2098 119.626 10.38C119.509 10.7184 119.509 11.0861 119.626 11.4245C119.68 11.5968 119.773 11.7541 119.899 11.8839C120.038 12.0233 120.215 12.1184 120.408 12.1573C120.482 12.1739 120.556 12.1849 120.632 12.1901H120.856H122.65V9.61435Z" fill="#4F5159"/>
<path d="M74.0709 29.8264C73.436 29.8435 72.8088 29.6825 72.2608 29.3616C71.7604 29.049 71.3634 28.5964 71.1178 28.06C70.8586 27.4553 70.7246 26.804 70.7246 26.146C70.7246 25.4879 70.8586 24.8367 71.1178 24.2319C71.3617 23.6961 71.7598 23.245 72.2608 22.9358C72.8077 22.6124 73.4355 22.4512 74.0709 22.471C74.7786 22.432 75.478 22.638 76.0523 23.0544C76.6259 23.4707 77.0383 24.0719 77.2209 24.7569L76.1764 25.0358C76.061 24.5669 75.7963 24.1484 75.4217 23.8436C75.0269 23.548 74.5418 23.3991 74.0491 23.4225C73.6066 23.4042 73.1691 23.5226 72.7967 23.7616C72.4533 23.9915 72.1897 24.322 72.042 24.7077C71.703 25.6272 71.703 26.6374 72.042 27.5569C72.1941 27.9403 72.4566 28.2697 72.7967 28.503C73.1719 28.7411 73.6105 28.8594 74.0545 28.8421C74.5434 28.8689 75.0263 28.7259 75.4217 28.4374C75.7832 28.1365 76.0397 27.7286 76.1545 27.2725L77.1991 27.5514C77.0246 28.2112 76.6407 28.7966 76.1053 29.2194C75.5158 29.647 74.7983 29.8611 74.0709 29.8264Z" fill="#4F5159"/>
<path d="M81.2135 29.8267C80.5786 29.8446 79.9513 29.6835 79.4034 29.3618C78.903 29.0492 78.5059 28.5966 78.2604 28.0603C78.0012 27.4554 77.8672 26.8042 77.8672 26.1462C77.8672 25.4881 78.0012 24.8369 78.2604 24.2321C78.5043 23.6963 78.9024 23.2452 79.4034 22.936C79.9579 22.6311 80.5808 22.4712 81.2135 22.4712C81.8463 22.4712 82.4691 22.6311 83.0237 22.936C83.523 23.2371 83.9222 23.6783 84.1721 24.2048C84.4281 24.8105 84.5593 25.4613 84.5593 26.1188C84.5593 26.7763 84.4281 27.4271 84.1721 28.0329C83.9266 28.5692 83.5295 29.0218 83.0291 29.3345C82.4823 29.6654 81.8528 29.8359 81.2135 29.8267ZM81.2135 28.8423C81.6548 28.8667 82.0929 28.752 82.4659 28.5142C82.8066 28.2779 83.0674 27.9443 83.2151 27.5571C83.5503 26.6388 83.5503 25.6316 83.2151 24.7134C83.0669 24.3293 82.806 23.9993 82.4659 23.7673C82.094 23.5263 81.6565 23.406 81.2135 23.4228C80.7722 23.3983 80.3341 23.513 79.9612 23.7509C79.6194 23.9858 79.358 24.3198 79.212 24.7079C79.0359 25.163 78.9489 25.6474 78.9549 26.1353C78.9396 26.6192 79.0233 27.1013 79.201 27.5517C79.3531 27.9351 79.6155 28.2645 79.9557 28.4978C80.3303 28.7378 80.7689 28.858 81.2135 28.8423Z" fill="#4F5159"/>
<path d="M90.9478 30.7232V29.6787H85.479V22.5693H86.5071V28.749H90.1876V22.7334H91.2157V28.749H91.9868V30.7232H90.9478Z" fill="#4F5159"/>
<path d="M97.2475 29.6787V24.4068L93.7584 29.6787H92.7139V22.5693H93.7584V27.8357L97.2475 22.5693H98.292V29.6787H97.2475Z" fill="#4F5159"/>
<path d="M99.1289 29.6787L101.431 22.5693H102.913L105.216 29.6787H104.149L102.027 23.2092H102.295L100.195 29.6787H99.1289ZM100.327 28.0764V27.1139H104.029V28.0764H100.327Z" fill="#4F5159"/>
<path d="M105.894 29.6791V28.7932C106.032 28.8135 106.174 28.8042 106.309 28.7658C106.422 28.7302 106.52 28.6592 106.588 28.5635C106.676 28.4233 106.74 28.27 106.779 28.1096C106.847 27.8594 106.9 27.6056 106.938 27.3494C107.015 26.9502 107.075 26.5455 107.124 26.1244C107.173 25.7033 107.212 25.2877 107.25 24.8721C107.288 24.4564 107.31 24.0518 107.332 23.6689C107.354 23.2861 107.376 22.9197 107.387 22.5752H112.062V29.6846H111.034V23.5596H108.376C108.376 23.8221 108.338 24.1064 108.316 24.44C108.294 24.7736 108.267 25.1072 108.234 25.4736C108.201 25.84 108.158 26.2119 108.108 26.6002C108.059 26.9885 108.004 27.3768 107.933 27.765C107.882 28.0724 107.809 28.3757 107.715 28.6729C107.64 28.9154 107.523 29.143 107.37 29.3455C107.232 29.5205 107.04 29.6454 106.823 29.701C106.516 29.7705 106.197 29.7629 105.894 29.6791Z" fill="#4F5159"/>
<path d="M113.364 29.6787V22.5693H114.392V25.1561H116.481C116.579 25.161 116.676 25.1719 116.771 25.1889C117.129 25.235 117.469 25.3746 117.756 25.5936C118.019 25.7981 118.224 26.0676 118.352 26.3756C118.486 26.709 118.554 27.066 118.549 27.4256C118.553 27.7817 118.486 28.1349 118.352 28.4646C118.227 28.7739 118.023 29.0453 117.761 29.2521C117.47 29.4672 117.129 29.6046 116.771 29.6514C116.676 29.6683 116.579 29.6793 116.481 29.6842H116.23L113.364 29.6787ZM114.392 28.7053H116.186C116.259 28.7104 116.332 28.7104 116.405 28.7053C116.481 28.701 116.556 28.6882 116.629 28.667C116.824 28.6291 117.003 28.5339 117.143 28.3936C117.266 28.2636 117.359 28.1088 117.417 27.9396C117.533 27.6012 117.533 27.2335 117.417 26.8951C117.36 26.7237 117.267 26.5669 117.143 26.4357C117.002 26.2975 116.823 26.2026 116.629 26.1623C116.555 26.1438 116.48 26.131 116.405 26.124H114.392V28.7053Z" fill="#4F5159"/>
<path d="M119.582 29.6787V22.5693H120.616V25.6209H124.159V22.5912H125.188V29.7006H124.154V26.6381H120.61V29.7006L119.582 29.6787Z" fill="#4F5159"/>
<path d="M126.517 29.6787V22.5693H127.545V25.1561H129.634C129.729 25.1606 129.824 25.1716 129.918 25.1889C130.278 25.2351 130.619 25.3746 130.908 25.5936C131.17 25.7996 131.375 26.0687 131.504 26.3756C131.639 26.709 131.706 27.066 131.701 27.4256C131.705 27.7817 131.639 28.1349 131.504 28.4646C131.379 28.7739 131.175 29.0453 130.913 29.2521C130.533 29.5079 130.092 29.6571 129.634 29.6842H129.377L126.517 29.6787ZM127.545 28.7053H129.338C129.41 28.7105 129.481 28.7105 129.552 28.7053C129.629 28.7014 129.707 28.6886 129.781 28.667C129.975 28.6304 130.153 28.5349 130.29 28.3936C130.414 28.2639 130.509 28.1091 130.569 27.9396C130.678 27.6 130.678 27.2347 130.569 26.8951C130.511 26.7234 130.416 26.5666 130.29 26.4357C130.151 26.2963 129.974 26.2012 129.781 26.1623C129.706 26.1434 129.629 26.1306 129.552 26.124H127.545V28.7053ZM132.401 29.6787V22.5693H133.429V29.6787H132.401Z" fill="#4F5159"/>
<path d="M134.173 29.6788L136.59 26.0858L134.238 22.5913H135.496L137.224 25.2163L138.942 22.5913H140.205L137.853 26.0858L140.265 29.6788H139.007L137.224 26.9444L135.436 29.6788H134.173Z" fill="#4F5159"/>
<path d="M72.8789 43.6241V37.5046H70.5V36.5366H76.2477V37.5046H73.8852V43.6241H72.8789Z" fill="#4F5159"/>
<path d="M77.0078 43.624V36.5146H81.5359V37.4826H78.0359V39.4678H80.9453V40.4686H78.0359V42.6561H81.5359V43.6295L77.0078 43.624Z" fill="#4F5159"/>
<path d="M82.0771 43.6241L84.4889 40.0312L82.1373 36.5366H83.4006L85.1287 39.1616L86.8459 36.5366H88.1092L85.7576 40.0312L88.1693 43.6241H86.9061L85.1287 40.8897L83.3404 43.6241H82.0771Z" fill="#4F5159"/>
<path d="M88.9077 43.624V36.5146H89.9358V39.5662H93.4686V36.5365H94.5022V43.6459H93.4686V40.5834H89.9249V43.6459L88.9077 43.624Z" fill="#4F5159"/>
<path d="M98.8009 43.7501C98.166 43.768 97.5387 43.6069 96.9908 43.2852C96.4887 42.9729 96.0895 42.5204 95.8423 41.9836C95.5864 41.3779 95.4546 40.7271 95.4546 40.0696C95.4546 39.4121 95.5864 38.7612 95.8423 38.1555C96.0884 37.6194 96.4882 37.1682 96.9908 36.8594C97.5442 36.5545 98.166 36.3945 98.7982 36.3945C99.4304 36.3945 100.052 36.5545 100.606 36.8594C101.109 37.1667 101.51 37.6183 101.754 38.1555C102.009 38.7612 102.141 39.4121 102.141 40.0696C102.141 40.7271 102.009 41.3779 101.754 41.9836C101.508 42.5214 101.109 42.9744 100.606 43.2852C100.059 43.6062 99.4342 43.7673 98.8009 43.7501ZM98.8009 42.7657C99.2291 42.8 99.6568 42.6929 100.018 42.4607C100.38 42.2286 100.655 41.8842 100.802 41.4805C101.138 40.5623 101.138 39.555 100.802 38.6368C100.64 38.2669 100.371 37.9531 100.031 37.7344C99.659 37.4935 99.222 37.3732 98.779 37.3899C98.3372 37.3654 97.8991 37.4802 97.5267 37.718C97.1849 37.9542 96.9219 38.2876 96.772 38.6751C96.5981 39.1305 96.5128 39.6149 96.5205 40.1024C96.5046 40.5864 96.5883 41.0685 96.7665 41.5188C96.9142 41.9045 97.1778 42.2349 97.5212 42.4649C97.904 42.7016 98.3514 42.8143 98.8009 42.7876V42.7657Z" fill="#4F5159"/>
<path d="M102.394 43.6244V42.7385C102.532 42.7588 102.674 42.7495 102.809 42.7111C102.921 42.6755 103.019 42.6045 103.088 42.5088C103.176 42.3686 103.24 42.2153 103.279 42.0549C103.346 41.8047 103.399 41.5509 103.438 41.2947C103.515 40.8955 103.575 40.4908 103.624 40.0697C103.673 39.6486 103.712 39.233 103.75 38.8174C103.788 38.4018 103.81 37.9971 103.832 37.6143C103.854 37.2314 103.876 36.865 103.887 36.5205H108.54V43.6299H107.512V37.5049H104.854C104.854 37.7674 104.816 38.0518 104.794 38.3854C104.772 38.7189 104.745 39.0525 104.712 39.4189C104.679 39.7854 104.636 40.1572 104.592 40.5455C104.548 40.9338 104.483 41.3221 104.412 41.7103C104.36 42.0177 104.287 42.321 104.193 42.6182C104.123 42.8627 104.006 43.0912 103.848 43.2908C103.709 43.4658 103.517 43.5907 103.301 43.6463C103.001 43.7121 102.69 43.7046 102.394 43.6244Z" fill="#4F5159"/>
<path d="M112.828 43.7502C112.192 43.7674 111.563 43.6064 111.013 43.2853C110.514 42.9712 110.117 42.5191 109.87 41.9838C109.614 41.378 109.482 40.7272 109.482 40.0697C109.482 39.4122 109.614 38.7614 109.87 38.1557C110.116 37.6209 110.513 37.1702 111.013 36.8596C111.562 36.536 112.191 36.3748 112.828 36.3947C113.462 36.3748 114.088 36.536 114.633 36.8596C115.137 37.1669 115.537 37.6184 115.781 38.1557C116.037 38.7614 116.169 39.4122 116.169 40.0697C116.169 40.7272 116.037 41.378 115.781 41.9838C115.536 42.5216 115.136 42.9745 114.633 43.2853C114.087 43.6064 113.461 43.7674 112.828 43.7502ZM112.828 42.7658C113.27 42.7895 113.708 42.6749 114.081 42.4377C114.42 42.1997 114.68 41.8667 114.83 41.4807C115.165 40.5624 115.165 39.5552 114.83 38.6369C114.68 38.2539 114.419 37.9244 114.081 37.6908C113.708 37.4518 113.271 37.3317 112.828 37.3463C112.387 37.3218 111.949 37.4366 111.576 37.6744C111.234 37.9105 110.971 38.244 110.821 38.6314C110.647 39.0869 110.562 39.5713 110.57 40.0588C110.554 40.5428 110.638 41.0248 110.816 41.4752C110.964 41.8608 111.228 42.1913 111.57 42.4213C111.942 42.669 112.381 42.7969 112.828 42.7877V42.7658Z" fill="#4F5159"/>
<path d="M117.11 43.624V36.5146H121.638V37.4826H118.138V43.6022L117.11 43.624Z" fill="#4F5159"/>
<path d="M126.91 43.624V38.3521L123.416 43.624H122.376V36.5146H123.416V41.7811L126.91 36.5146H127.949V43.624H126.91Z" fill="#4F5159"/>
<path d="M129.278 43.6242V36.5148H130.323V41.7813L133.812 36.5148H134.856V43.6242H133.812V38.3523L130.323 43.6242H129.278ZM132.084 35.9242C131.834 35.9264 131.588 35.8602 131.373 35.7328C131.163 35.6048 130.987 35.4286 130.859 35.2187C130.731 35.0036 130.665 34.7578 130.667 34.5078H131.488C131.485 34.5865 131.499 34.6648 131.529 34.7374C131.559 34.8101 131.605 34.8754 131.663 34.9289C131.718 34.9856 131.784 35.0307 131.856 35.0615C131.929 35.0923 132.007 35.1082 132.087 35.1082C132.166 35.1082 132.244 35.0923 132.317 35.0615C132.389 35.0307 132.455 34.9856 132.51 34.9289C132.567 34.8742 132.611 34.8086 132.641 34.7363C132.671 34.6639 132.686 34.5862 132.685 34.5078H133.506C133.509 34.7587 133.441 35.0052 133.309 35.2187C133.184 35.431 133.007 35.6079 132.795 35.7328C132.58 35.8602 132.334 35.9264 132.084 35.9242Z" fill="#4F5159"/>
</g>
<defs>
<clipPath id="clip0_13829_448">
<rect width="140" height="52.5" fill="white" transform="translate(0.5)"/>
</clipPath>
</defs>
</svg>
