<svg width="172" height="40" viewBox="0 0 172 40" fill="none" xmlns="http://www.w3.org/2000/svg">
<path d="M128.417 16.9106C128.61 15.893 128.61 14.85 128.417 13.8323C127.464 13.2449 126.46 12.7388 125.416 12.3197C124.929 12.1207 124.428 11.9416 123.926 11.789C123.067 11.5016 122.185 11.2798 121.29 11.1256C120.287 10.9601 119.272 10.878 118.254 10.8801C117.32 10.8819 116.386 10.944 115.46 11.0659C115.497 11.8932 115.629 12.7141 115.851 13.5139C116.648 13.4125 117.451 13.3616 118.254 13.3613C119.001 13.3595 119.747 13.4105 120.486 13.5139C121.458 13.5965 122.41 13.8248 123.308 14.1906C123.688 14.3144 124.064 14.4515 124.434 14.6019C125.881 15.1688 127.229 15.9475 128.431 16.9106H128.417ZM121.248 8.58467C121.296 9.0756 121.317 9.59307 121.317 10.1371V10.4489C122.178 10.5892 123.027 10.7888 123.858 11.046V10.1371C123.858 9.45679 123.821 8.77696 123.748 8.10037L122.237 7.06543L121.248 8.58467Z" fill="#FFB700"/>
<path d="M115.391 19.2059C116.173 18.8566 116.874 18.3579 117.451 17.7398C116.365 16.5978 115.583 15.2181 115.171 13.7194V13.6464C114.934 12.7907 114.801 11.9114 114.773 11.0259V10.1635C114.74 8.5898 114.972 7.02141 115.46 5.51953C114.414 5.7436 113.415 6.13848 112.507 6.68715C112.289 7.82937 112.181 8.9887 112.184 10.1502C112.184 10.6942 112.184 11.2382 112.253 11.769C112.314 12.6098 112.459 13.443 112.686 14.2568C113.175 16.0934 114.104 17.7933 115.398 19.2192" fill="#FFB700"/>
<path d="M120.562 14.1907C119.952 15.6675 119.081 17.0302 117.987 18.2177C117.337 18.9085 116.544 19.46 115.659 19.8364C115.22 20.062 114.766 20.2743 114.286 20.4601C112.81 21.0714 111.243 21.4542 109.644 21.5945C110.312 22.4124 111.093 23.1379 111.965 23.7506C113.097 23.5118 114.205 23.1743 115.274 22.7422C116.225 22.3711 117.144 21.9274 118.021 21.4154C118.799 20.9058 119.513 20.3115 120.15 19.6441C121.407 18.215 122.401 16.5881 123.089 14.8342C122.284 14.4997 121.433 14.2829 120.562 14.1907ZM124.201 6.36232C125.482 7.18583 126.575 8.25405 127.412 9.50114C128.249 10.7482 128.814 12.1478 129.07 13.6135C129.323 14.9136 129.3 16.2499 129.001 17.541C128.751 18.7564 128.287 19.9211 127.628 20.9842C128.481 20.9562 129.303 20.6683 129.976 20.1615C130.944 19.3986 131.452 18.1182 131.487 16.3601C131.487 16.0417 131.528 15.6967 131.528 15.3981C131.523 12.823 130.733 10.3063 129.257 8.16242C127.78 6.01852 125.683 4.3425 123.226 3.34375C123.624 4.32423 123.95 5.33073 124.201 6.35569" fill="#FFB700"/>
<path d="M132.132 17.2091C132.103 17.8715 131.936 18.5216 131.642 19.1209C131.349 19.7202 130.934 20.2567 130.422 20.6987C129.54 21.3548 128.452 21.699 127.339 21.6739C127.026 21.6764 126.714 21.652 126.405 21.601C124.847 21.4523 123.321 21.0742 121.88 20.4798C121.475 20.3139 121.091 20.1348 120.713 19.949C120.112 20.6078 119.437 21.1997 118.701 21.7137C119.401 22.1015 120.126 22.4471 120.871 22.7487C121.998 23.2052 123.169 23.5562 124.366 23.7969C125.599 23.9859 126.846 24.0791 128.095 24.0755C130.47 23.903 132.18 22.9742 132.833 21.455C133.402 20.1282 133.093 18.6554 132.146 17.2091H132.132ZM105.379 20.022C105.511 19.4181 105.768 18.8463 106.136 18.3411C106.503 17.836 106.972 17.408 107.515 17.083C108.767 16.037 110.189 15.1985 111.724 14.6018L112.054 14.4758H112.02C111.791 13.6657 111.637 12.8376 111.56 12.0012C111.285 12.1007 111.003 12.2002 110.736 12.313C109.331 12.8712 108.003 13.593 106.78 14.4625C105.907 15.0458 105.131 15.7551 104.48 16.5656C103.107 18.2109 102.647 19.9424 103.292 21.4417C103.828 22.6691 105.05 23.5116 106.725 23.8831C105.606 22.5563 105.146 21.2294 105.352 20.0021" fill="#FFB700"/>
<path d="M124.194 24.4538C122.28 25.689 120.019 26.3249 117.718 26.2751C115.417 26.2252 113.188 25.492 111.333 24.1751L111.017 23.9429C110.198 23.243 109.446 22.4725 108.772 21.6408C108.029 20.6192 107.473 19.4813 107.131 18.2773C106.58 18.7806 106.209 19.4407 106.073 20.1614C105.874 21.3821 106.485 22.7289 107.893 24.1419C109.107 25.4627 110.586 26.5315 112.24 27.2836C113.895 28.0357 115.69 28.4555 117.517 28.5175C119.344 28.5796 121.165 28.2825 122.87 27.6444C124.575 27.0063 126.128 26.0405 127.435 24.8054C126.353 24.7591 125.273 24.6572 124.201 24.5002L124.194 24.4538ZM118.378 2.43476C119.565 3.20779 120.393 4.39796 120.685 5.75187C120.872 6.3427 121.014 6.94577 121.111 7.55638L122.066 6.11676L122.361 6.32242L123.645 7.20477C123.604 6.95267 123.563 6.7072 123.508 6.46837C123.236 5.27388 122.821 4.11397 122.272 3.01194C121.221 1.13445 119.738 0 118.042 0C117.303 0.0334571 116.584 0.239963 115.946 0.601716C115.309 0.963468 114.772 1.46961 114.382 2.07651C115.037 1.8734 115.729 1.80043 116.414 1.862C117.1 1.92356 117.766 2.11838 118.371 2.43476H118.378ZM121.564 3.9739C121.681 3.9739 121.795 4.00736 121.892 4.07006C121.99 4.13275 122.065 4.22185 122.11 4.32611C122.155 4.43036 122.166 4.54508 122.144 4.65575C122.121 4.76643 122.065 4.86809 121.982 4.94788C121.899 5.02767 121.794 5.08201 121.68 5.10403C121.565 5.12604 121.446 5.11474 121.338 5.07156C121.23 5.02838 121.138 4.95525 121.073 4.86142C121.008 4.7676 120.974 4.65729 120.974 4.54444C120.974 4.46952 120.989 4.39533 121.019 4.32611C121.048 4.25689 121.092 4.19399 121.147 4.14101C121.202 4.08803 121.267 4.046 121.338 4.01733C121.41 3.98866 121.487 3.9739 121.564 3.9739Z" fill="#FFB700"/>
<path d="M106.89 13.5271C107.161 12.0211 107.758 10.5872 108.64 9.31845C109.523 8.04972 110.672 6.97466 112.013 6.16316C113.125 5.30734 115.322 4.83631 115.755 4.7169H115.824C117.039 4.48789 118.285 4.4565 119.511 4.62402C119.178 3.95638 118.657 3.39302 118.007 2.99863C116.929 2.37502 115.515 2.33521 113.812 2.93229C111.084 3.78617 108.706 5.45313 107.019 7.69392C105.333 9.9347 104.425 12.6341 104.425 15.4046V15.5572C105.182 14.8246 106.004 14.1586 106.883 13.5669" fill="#FFB700"/>
<path d="M4.05337 19.245V28.0357H0V0.293368H4.05337V10.1829L9.00822 0.293368H13.3287L7.77953 11.6049L14.2836 28.0357H9.52241L5.26203 16.7694L4.05337 19.245ZM22.2701 21.6624L21.2885 28.0357H17.0682L21.6358 0.312759H27.2116L31.7124 28.0357H27.452L26.5038 21.6624H22.2701ZM24.4003 6.66013L22.8978 17.5903H25.9028L24.4003 6.66013ZM41.5086 0.312759C43.7657 0.312759 45.424 0.959131 46.4835 2.25187C47.4139 3.37225 47.8791 4.93647 47.8791 6.94454V10.9714C47.8964 11.9011 47.7129 12.8241 47.3403 13.6811C46.9677 14.5382 46.4143 15.3105 45.7156 15.9485L48.7139 28.0486H44.3333L41.8759 17.5903H39.2048V28.0357H35.118V0.312759H41.5086ZM43.9326 6.99624C43.9326 5.38893 43.1602 4.58528 41.6155 4.58528H39.1714V13.4535H41.6155C41.925 13.4559 42.2314 13.3937 42.5137 13.271C42.7961 13.1483 43.0477 12.968 43.2515 12.7425C43.6942 12.2816 43.9338 11.6717 43.9193 11.0425L43.9326 6.99624ZM56.2396 28.0357H52.1863V0.286904H58.0025L61.7821 20.221L65.4081 0.286904H70.9907V28.0357H66.9373V10.603L63.4248 28.0357H60.1661L56.2396 10.6482V28.0357ZM79.5849 21.6624L78.5966 28.0357H74.3763L78.9438 0.312759H84.5197L89.0205 28.0357H84.7601L83.8119 21.6624H79.5849ZM81.7151 6.66013L80.2126 17.5903H83.2176L81.7151 6.66013ZM103.471 28.0357H92.4328V0.312759H96.4862V23.8795H103.471V28.0357ZM140.719 28.3912C139.861 28.4014 139.011 28.2337 138.225 27.8992C137.44 27.5647 136.737 27.0713 136.165 26.452C134.931 25.1951 134.257 23.5189 134.289 21.7852V6.64074C134.249 4.8949 134.926 3.20514 136.172 1.94162C136.743 1.32322 137.444 0.83026 138.229 0.495812C139.013 0.161363 139.862 -0.00683622 140.719 0.00250014C141.577 -0.00979808 142.427 0.157065 143.212 0.491707C143.996 0.826349 144.697 1.3209 145.267 1.94162C146.498 3.20967 147.167 4.89437 147.13 6.63428V9.79504H142.903V6.56318C142.921 5.93153 142.681 5.31854 142.235 4.85675C142.028 4.63125 141.774 4.45114 141.49 4.32851C141.205 4.20587 140.897 4.14356 140.586 4.14574C140.275 4.14237 139.967 4.20417 139.684 4.32691C139.4 4.44966 139.147 4.63042 138.943 4.85675C138.499 5.31965 138.26 5.93189 138.275 6.56318V21.7335C138.258 22.3612 138.498 22.97 138.943 23.427C139.149 23.6503 139.403 23.8282 139.686 23.9486C139.969 24.0691 140.276 24.1292 140.586 24.1251C140.896 24.1277 141.203 24.0668 141.487 23.9465C141.772 23.8262 142.026 23.6492 142.235 23.427C142.456 23.2023 142.628 22.9375 142.743 22.648C142.858 22.3585 142.912 22.0499 142.903 21.74V16.2846H140.652V12.0832H147.103V21.7788C147.123 22.6429 146.966 23.5022 146.641 24.3074C146.317 25.1127 145.832 25.8481 145.213 26.4714C144.644 27.0874 143.946 27.5789 143.165 27.9132C142.385 28.2476 141.54 28.4171 140.686 28.4106L140.719 28.3912ZM150.642 0.312759H154.696V28.0357H150.642V0.312759ZM164.712 28.3912C163.854 28.4014 163.004 28.2337 162.218 27.8992C161.433 27.5647 160.73 27.0713 160.158 26.452C158.912 25.1958 158.23 23.5134 158.262 21.7723V6.64074C158.228 4.89215 158.912 3.20202 160.165 1.94162C160.741 1.32992 161.443 0.841311 162.225 0.506993C163.008 0.172675 163.854 0 164.709 0C165.564 0 166.41 0.172675 167.193 0.506993C167.975 0.841311 168.677 1.32992 169.253 1.94162C170.484 3.20967 171.153 4.89437 171.116 6.63428V9.79504H166.943V6.56318C166.96 5.93153 166.72 5.31854 166.275 4.85675C166.068 4.63125 165.814 4.45114 165.53 4.32851C165.245 4.20587 164.937 4.14356 164.625 4.14574C164.308 4.1349 163.991 4.19247 163.699 4.31431C163.407 4.43614 163.146 4.6192 162.936 4.85029C162.492 5.31319 162.253 5.92542 162.268 6.55671V21.7335C162.251 22.3612 162.491 22.97 162.936 23.427C163.142 23.6495 163.394 23.8269 163.676 23.9473C163.958 24.0677 164.264 24.1283 164.572 24.1251C164.882 24.1281 165.19 24.0674 165.474 23.9471C165.758 23.8268 166.013 23.6495 166.221 23.427C166.442 23.2011 166.615 22.9352 166.73 22.6446C166.844 22.354 166.898 22.0444 166.889 21.7335V17.9005H171.089V21.7788C171.11 22.6424 170.954 23.5015 170.631 24.3067C170.308 25.1119 169.824 25.8476 169.206 26.4714C168.637 27.0874 167.939 27.5789 167.158 27.9132C166.378 28.2476 165.533 28.4171 164.679 28.4106L164.712 28.3912ZM4.39393 32.7865V39.8319H3.58593V33.491H0.808002V39.8319H0V32.7865H4.39393ZM8.68102 39.8319H7.87969V32.7865H9.883C11.2185 32.7865 12.08 33.3811 12.08 34.7709C12.08 36.4126 11.0516 36.8457 9.73609 36.8457H8.68102V39.8319ZM8.68102 36.1412H9.48234C10.5975 36.1412 11.2586 35.9731 11.2586 34.7709C11.2586 33.7754 10.6843 33.4781 9.70938 33.4781H8.68102V36.1412ZM15.1851 36.2963C15.1851 34.6804 15.4589 32.6443 17.5824 32.6443C19.7059 32.6443 19.9864 34.6804 19.9864 36.2963C19.9864 38.2354 19.7059 39.9935 17.5824 39.9935C15.4589 39.9935 15.1851 38.2419 15.1851 36.2963ZM17.5624 33.3553C16.3203 33.3553 16.0265 34.5963 16.0265 36.1993C16.0265 38.2419 16.2469 39.3213 17.5824 39.3213C18.9179 39.3213 19.1517 38.2419 19.1517 36.2123C19.1517 34.6028 18.8445 33.3553 17.5624 33.3553ZM26.9379 32.7865V33.491H24.0998V35.7792H26.7709V36.4837H24.0998V39.1274H26.9512V39.8319H23.2852V32.7865H26.9379ZM30.9378 36.4062L33.6089 32.7865H34.6172L32.2934 35.7339L34.6907 39.8319H33.7291L31.7859 36.348L30.9378 37.3757V39.8319H30.1298V32.7865H30.9378V36.4062ZM40.0662 39.8319H39.2315V33.491H37.3417V32.7865H41.9226V33.491H40.0662V39.8319ZM50.7506 32.7865H51.819L53.8624 39.8319H52.9809L52.4066 37.8088H50.0828L49.5486 39.8319H48.6805L50.7506 32.7865ZM51.2781 33.3553L50.3165 37.1043H52.2196L51.2781 33.3553ZM61.7688 32.7865V39.8319H60.9608V33.491H58.5167V36.2834C58.5167 37.8605 58.5167 39.9224 57.0743 39.9224C56.91 39.9225 56.7463 39.9029 56.5869 39.8643V39.1662C56.6876 39.2009 56.7938 39.2184 56.9007 39.2179C57.6486 39.2179 57.7087 38.1191 57.7087 35.8632V32.7865H61.7688ZM68.9072 32.7865V33.491H66.0625V35.7792H68.7336V36.4837H66.0625V39.1274H68.9139V39.8319H65.2545V32.7865H68.9072ZM72.9072 36.4062L75.5783 32.7865H76.5866L74.2627 35.7339L76.66 39.8319H75.7185L73.7753 36.348L72.9272 37.3757V39.8319H72.1192V32.7865H72.9272L72.9072 36.4062ZM82.6767 34.9066C82.6767 34.0534 82.3828 33.3618 81.3411 33.3618C79.9388 33.3618 79.9254 35.3009 79.9254 36.2058C79.9254 37.6343 80.0056 39.2955 81.3411 39.2955C82.3895 39.2955 82.5631 38.4552 82.6767 37.2917H83.4713C83.3778 38.9141 82.9638 40 81.4212 40C79.2777 40 79.1041 37.8864 79.1041 36.2252C79.1041 34.564 79.4046 32.6572 81.4012 32.6572C82.8035 32.6508 83.4713 33.6138 83.4713 34.9066H82.6767ZM90.3694 32.7865V33.491H87.5313V35.7792H90.2024V36.4837H87.5313V39.1274H90.3827V39.8319H86.7234V32.7865H90.3694ZM96.8267 36.8457H95.7783L94.189 39.8384H93.2875L94.9236 36.7487C94.488 36.6435 94.1067 36.389 93.8501 36.0325C93.5935 35.676 93.479 35.2416 93.5279 34.8096C93.5279 33.4135 94.3894 32.8253 95.7115 32.8253H97.6347V39.8707H96.8267V36.8457ZM96.8267 33.4975H95.9052C94.9369 33.4975 94.3693 33.7819 94.3693 34.7902C94.3693 35.9149 95.0371 36.1476 96.1389 36.1476H96.8067L96.8267 33.4975ZM109.007 34.9066C109.007 34.0534 108.713 33.3618 107.671 33.3618C106.262 33.3618 106.256 35.3009 106.256 36.2058C106.256 37.6343 106.336 39.2955 107.671 39.2955C108.72 39.2955 108.893 38.4552 109.007 37.2917H109.815C109.721 38.9141 109.307 40 107.765 40C105.621 40 105.448 37.8864 105.448 36.2252C105.448 34.564 105.755 32.6572 107.745 32.6572C109.12 32.6572 109.815 33.6462 109.815 34.9066H109.007ZM113.862 32.7865V39.3213C113.941 38.9932 114.039 38.6695 114.155 38.3518L116.419 32.7865H117.594V39.8319H116.786V34.215V33.1355C116.734 33.5252 116.64 33.9085 116.506 34.2796L114.229 39.8255H113.054V32.7865H113.862ZM123.304 39.8319H122.496V33.491H120.606V32.7865H125.187V33.491H123.304V39.8319ZM129.007 35.7792H131.785V32.7865H132.592V39.8319H131.785V36.4837H129.007V39.8319H128.212V32.7865H129.02L129.007 35.7792ZM136.893 32.7865V39.3213C136.972 38.9931 137.07 38.6694 137.187 38.3518L139.451 32.7865H140.626V39.8319H139.818V34.215V33.1355C139.764 33.5251 139.67 33.9084 139.537 34.2796L137.26 39.8255H136.085V32.7865H136.893ZM144.906 36.4062L147.577 32.7865H148.586L146.242 35.7275L148.639 39.8255H147.697L145.754 36.3415L144.906 37.3757V39.8319H144.105V32.7865H144.906V36.4062ZM151.143 36.2963C151.143 34.6804 151.417 32.6443 153.54 32.6443C155.664 32.6443 155.944 34.6804 155.944 36.2963C155.944 38.2354 155.664 39.9935 153.54 39.9935C151.417 39.9935 151.143 38.2419 151.143 36.2963ZM153.52 33.3488C152.278 33.3488 151.985 34.5899 151.985 36.167C151.985 38.2095 152.205 39.289 153.54 39.289C154.876 39.289 155.11 38.2095 155.11 36.1799C155.103 34.6028 154.796 33.3553 153.514 33.3553L153.52 33.3488ZM159.237 32.7865H161.146C162.482 32.7865 163.15 33.491 163.15 34.5511C163.187 34.8873 163.102 35.2257 162.907 35.5069C162.713 35.7881 162.423 35.9943 162.088 36.0895C162.479 36.1746 162.824 36.3964 163.057 36.7124C163.29 37.0285 163.394 37.4165 163.35 37.8023C163.383 38.0765 163.35 38.3542 163.256 38.6145C163.161 38.8749 163.007 39.1111 162.804 39.3053C162.602 39.4994 162.356 39.6466 162.086 39.7356C161.817 39.8246 161.529 39.8531 161.247 39.819H159.243L159.237 32.7865ZM160.045 35.7792H161.046C161.854 35.7792 162.308 35.4948 162.308 34.5963C162.308 33.6979 161.861 33.491 161.126 33.491H160.045V35.7792ZM160.045 39.1274H161.247C162.115 39.1274 162.509 38.7266 162.509 37.8347C162.533 37.6594 162.515 37.481 162.456 37.3135C162.398 37.146 162.3 36.9938 162.171 36.8688C162.042 36.7437 161.885 36.6492 161.711 36.5925C161.538 36.5358 161.354 36.5185 161.173 36.5419H160.038L160.045 39.1274ZM168.111 32.7865H169.18L171.223 39.8319H170.335L169.761 37.8088H167.463L166.929 39.8319H166.041L168.111 32.7865ZM168.639 33.3553L167.677 37.1043H169.594L168.639 33.3553Z" fill="white"/>
</svg>
