<svg width="74" height="36" viewBox="0 0 74 36" fill="none" xmlns="http://www.w3.org/2000/svg">
<path d="M0 0H16.0786C21.6404 0 26.0562 1.60112 29.3258 4.80337C32.5955 7.97191 34.2303 12.3371 34.2303 17.8989C34.2303 23.8315 32.6461 28.3315 29.4775 31.3989C26.3427 34.4663 21.809 36 15.8764 36H0V0ZM10.8202 9.05056V26.8989H15.1685C17.8315 26.8989 19.8371 26.1236 21.1854 24.573C22.5674 23.0225 23.2584 20.8652 23.2584 18.1011C23.2584 15.1011 22.4494 12.8427 20.8315 11.3258C19.2472 9.80899 17.0056 9.05056 14.1067 9.05056H10.8202Z" fill="#2E2E2E"/>
<path d="M73.3814 0V36H63.0162V30.5899C63.0162 24.2191 63.151 17.3933 63.4207 10.1124L56.6454 36H48.4038L41.578 10.1124C41.8139 15.573 41.9488 21.8933 41.9825 29.073L42.033 36H31.6679V0H47.4937L49.8196 9.35393C51.033 14.3764 51.96 18.927 52.6005 23.0056C53.1061 20.1067 54.1173 15.4719 55.6342 9.10112L57.8589 0H73.3814Z" fill="#2E2E2E"/>
</svg>
